<svg data-v-423bf9ae="" xmlns="http://www.w3.org/2000/svg" viewBox="0 0 379 90" class="iconLeft"><!----><!----><!----><g data-v-423bf9ae="" id="f76e8111-b28e-4216-98d8-5b62cfb3db03" fill="white" transform="matrix(4.654770851135254,0,0,4.654770851135254,109.2319564819336,1.268425703048706)"><path d="M3.17 12.61L3.17 4.50L0.14 4.50L0.14 2.95L7.92 2.95L7.92 4.50L4.90 4.50L4.90 12.61L3.17 12.61ZM9.07 12.61L9.07 2.95L10.77 2.95L10.77 6.57L10.77 6.57Q11.16 6.09 11.68 5.86L11.68 5.86L11.68 5.86Q12.20 5.63 12.74 5.63L12.74 5.63L12.74 5.63Q13.60 5.63 14.16 6.04L14.16 6.04L14.16 6.04Q14.73 6.44 15.00 7.09L15.00 7.09L15.00 7.09Q15.26 7.75 15.26 8.50L15.26 8.50L15.26 12.61L13.57 12.61L13.57 8.72L13.57 8.72Q13.57 7.99 13.30 7.57L13.30 7.57L13.30 7.57Q13.04 7.14 12.34 7.14L12.34 7.14L12.34 7.14Q11.57 7.14 11.17 7.70L11.17 7.70L11.17 7.70Q10.77 8.25 10.77 9.15L10.77 9.15L10.77 12.61L9.07 12.61ZM19.89 12.74L19.89 12.74Q18.76 12.74 17.99 12.26L17.99 12.26L17.99 12.26Q17.21 11.77 16.82 10.97L16.82 10.97L16.82 10.97Q16.43 10.17 16.43 9.21L16.43 9.21L16.43 9.21Q16.43 8.29 16.80 7.46L16.80 7.46L16.80 7.46Q17.17 6.64 17.93 6.14L17.93 6.14L17.93 6.14Q18.68 5.63 19.78 5.63L19.78 5.63L19.78 5.63Q20.90 5.63 21.62 6.15L21.62 6.15L21.62 6.15Q22.33 6.67 22.64 7.45L22.64 7.45L22.64 7.45Q22.95 8.23 22.95 9.08L22.95 9.08L22.95 9.08Q22.95 9.28 22.93 9.47L22.93 9.47L22.93 9.47Q22.91 9.66 22.89 9.73L22.89 9.73L18.20 9.73L18.20 9.73Q18.44 11.23 19.91 11.23L19.91 11.23L19.91 11.23Q20.39 11.23 20.79 11.06L20.79 11.06L20.79 11.06Q21.20 10.89 21.55 10.51L21.55 10.51L22.70 11.51L22.70 11.51Q22.13 12.13 21.44 12.44L21.44 12.44L21.44 12.44Q20.75 12.74 19.89 12.74L19.89 12.74ZM18.20 8.53L21.31 8.53L21.31 8.53Q21.23 7.81 20.83 7.42L20.83 7.42L20.83 7.42Q20.43 7.03 19.77 7.03L19.77 7.03L19.77 7.03Q18.47 7.03 18.20 8.53L18.20 8.53ZM27.96 12.61L27.96 2.95L30.76 2.95L30.76 2.95Q32.40 2.95 33.52 3.52L33.52 3.52L33.52 3.52Q34.64 4.09 35.22 5.18L35.22 5.18L35.22 5.18Q35.79 6.28 35.79 7.85L35.79 7.85L35.79 7.85Q35.79 9.35 35.20 10.42L35.20 10.42L35.20 10.42Q34.62 11.48 33.49 12.04L33.49 12.04L33.49 12.04Q32.36 12.61 30.75 12.61L30.75 12.61L27.96 12.61ZM29.70 11.01L30.58 11.01L30.58 11.01Q32.27 11.01 33.16 10.26L33.16 10.26L33.16 10.26Q34.05 9.51 34.05 7.77L34.05 7.77L34.05 7.77Q34.05 6.62 33.71 5.91L33.71 5.91L33.71 5.91Q33.38 5.20 32.66 4.87L32.66 4.87L32.66 4.87Q31.93 4.54 30.73 4.54L30.73 4.54L29.70 4.54L29.70 11.01ZM39.20 12.74L39.20 12.74Q38.50 12.74 37.94 12.48L37.94 12.48L37.94 12.48Q37.37 12.22 37.05 11.71L37.05 11.71L37.05 11.71Q36.72 11.20 36.72 10.51L36.72 10.51L36.72 10.51Q36.72 9.46 37.46 9.00L37.46 9.00L37.46 9.00Q38.19 8.53 39.44 8.53L39.44 8.53L41.22 8.53L41.22 8.53Q41.22 7.87 40.87 7.48L40.87 7.48L40.87 7.48Q40.52 7.09 39.87 7.09L39.87 7.09L39.87 7.09Q39.33 7.09 38.92 7.36L38.92 7.36L38.92 7.36Q38.51 7.63 38.27 8.05L38.27 8.05L36.99 7.13L36.99 7.13Q37.52 6.41 38.21 6.02L38.21 6.02L38.21 6.02Q38.90 5.63 39.86 5.63L39.86 5.63L39.86 5.63Q40.78 5.63 41.44 5.99L41.44 5.99L41.44 5.99Q42.11 6.34 42.46 6.99L42.46 6.99L42.46 6.99Q42.81 7.63 42.81 8.46L42.81 8.46L42.81 12.61L41.44 12.61L41.33 11.63L41.33 11.63Q40.91 12.24 40.39 12.49L40.39 12.49L40.39 12.49Q39.86 12.74 39.20 12.74L39.20 12.74ZM39.44 11.33L39.44 11.33Q39.91 11.33 40.31 11.11L40.31 11.11L40.31 11.11Q40.71 10.89 40.96 10.52L40.96 10.52L40.96 10.52Q41.21 10.16 41.22 9.73L41.22 9.73L39.54 9.73L39.54 9.73Q39.00 9.73 38.72 9.97L38.72 9.97L38.72 9.97Q38.43 10.21 38.43 10.56L38.43 10.56L38.43 10.56Q38.43 10.91 38.70 11.12L38.70 11.12L38.70 11.12Q38.96 11.33 39.44 11.33L39.44 11.33ZM46.46 12.74L46.46 12.74Q45.75 12.74 45.19 12.48L45.19 12.48L45.19 12.48Q44.63 12.22 44.30 11.71L44.30 11.71L44.30 11.71Q43.98 11.20 43.98 10.51L43.98 10.51L43.98 10.51Q43.98 9.46 44.71 9.00L44.71 9.00L44.71 9.00Q45.45 8.53 46.70 8.53L46.70 8.53L48.47 8.53L48.47 8.53Q48.47 7.87 48.13 7.48L48.13 7.48L48.13 7.48Q47.78 7.09 47.13 7.09L47.13 7.09L47.13 7.09Q46.58 7.09 46.17 7.36L46.17 7.36L46.17 7.36Q45.77 7.63 45.52 8.05L45.52 8.05L44.24 7.13L44.24 7.13Q44.77 6.41 45.46 6.02L45.46 6.02L45.46 6.02Q46.16 5.63 47.11 5.63L47.11 5.63L47.11 5.63Q48.03 5.63 48.70 5.99L48.70 5.99L48.70 5.99Q49.36 6.34 49.71 6.99L49.71 6.99L49.71 6.99Q50.07 7.63 50.07 8.46L50.07 8.46L50.07 12.61L48.69 12.61L48.58 11.63L48.58 11.63Q48.17 12.24 47.64 12.49L47.64 12.49L47.64 12.49Q47.11 12.74 46.46 12.74L46.46 12.74ZM46.70 11.33L46.70 11.33Q47.16 11.33 47.56 11.11L47.56 11.11L47.56 11.11Q47.97 10.89 48.21 10.52L48.21 10.52L48.21 10.52Q48.46 10.16 48.47 9.73L48.47 9.73L46.79 9.73L46.79 9.73Q46.25 9.73 45.97 9.97L45.97 9.97L45.97 9.97Q45.68 10.21 45.68 10.56L45.68 10.56L45.68 10.56Q45.68 10.91 45.95 11.12L45.95 11.12L45.95 11.12Q46.22 11.33 46.70 11.33L46.70 11.33ZM54.97 11.54L54.97 11.54Q55.77 11.65 56.33 11.82L56.33 11.82L56.33 11.82Q56.89 12.00 57.26 12.41L57.26 12.41L57.26 12.41Q57.63 12.82 57.63 13.56L57.63 13.56L57.63 13.56Q57.63 14.30 57.23 14.82L57.23 14.82L57.23 14.82Q56.84 15.33 56.16 15.59L56.16 15.59L56.16 15.59Q55.47 15.84 54.61 15.84L54.61 15.84L54.61 15.84Q53.62 15.84 52.90 15.53L52.90 15.53L52.90 15.53Q52.18 15.22 51.80 14.66L51.80 14.66L51.80 14.66Q51.41 14.11 51.41 13.41L51.41 13.41L51.41 13.41Q51.41 13.25 51.44 13.11L51.44 13.11L52.15 12.47L52.15 12.47Q51.48 12.02 51.48 11.12L51.48 11.12L51.48 11.12Q51.48 10.68 51.64 10.33L51.64 10.33L51.64 10.33Q51.80 9.99 52.12 9.71L52.12 9.71L52.12 9.71Q51.84 9.39 51.70 8.99L51.70 8.99L51.70 8.99Q51.55 8.59 51.55 8.14L51.55 8.14L51.55 8.14Q51.55 7.42 51.93 6.85L51.93 6.85L51.93 6.85Q52.32 6.28 52.96 5.95L52.96 5.95L52.96 5.95Q53.60 5.63 54.35 5.63L54.35 5.63L54.35 5.63Q54.80 5.63 55.21 5.75L55.21 5.75L55.21 5.75Q55.62 5.86 55.97 6.07L55.97 6.07L57.01 5.17L57.88 6.23L56.89 7.03L56.89 7.03Q57.18 7.56 57.18 8.22L57.18 8.22L57.18 8.22Q57.18 8.96 56.81 9.53L56.81 9.53L56.81 9.53Q56.43 10.10 55.79 10.41L55.79 10.41L55.79 10.41Q55.16 10.72 54.41 10.72L54.41 10.72L54.41 10.72Q53.72 10.72 53.11 10.45L53.11 10.45L53.11 10.45Q52.91 10.58 52.91 10.81L52.91 10.81L52.91 10.81Q52.91 11.05 53.10 11.17L53.10 11.17L53.10 11.17Q53.29 11.30 53.60 11.36L53.60 11.36L53.60 11.36Q53.91 11.42 54.52 11.48L54.52 11.48L54.52 11.48Q54.65 11.50 54.76 11.52L54.76 11.52L54.76 11.52Q54.87 11.53 54.97 11.54L54.97 11.54ZM54.41 6.92L54.41 6.92Q53.87 6.92 53.57 7.26L53.57 7.26L53.57 7.26Q53.27 7.60 53.27 8.16L53.27 8.16L53.27 8.16Q53.27 8.70 53.57 9.03L53.57 9.03L53.57 9.03Q53.87 9.36 54.41 9.36L54.41 9.36L54.41 9.36Q54.95 9.36 55.24 9.03L55.24 9.03L55.24 9.03Q55.53 8.70 55.53 8.16L55.53 8.16L55.53 8.16Q55.53 7.60 55.23 7.26L55.23 7.26L55.23 7.26Q54.94 6.92 54.41 6.92L54.41 6.92ZM54.62 14.53L54.62 14.53Q55.28 14.53 55.66 14.32L55.66 14.32L55.66 14.32Q56.05 14.12 56.05 13.75L56.05 13.75L56.05 13.75Q56.05 13.51 55.87 13.38L55.87 13.38L55.87 13.38Q55.69 13.25 55.36 13.19L55.36 13.19L55.36 13.19Q55.04 13.13 54.38 13.06L54.38 13.06L54.38 13.06Q54.24 13.04 54.17 13.03L54.17 13.03L54.17 13.03Q53.53 12.96 53.16 12.87L53.16 12.87L52.81 13.45L52.81 13.45Q52.88 13.97 53.37 14.25L53.37 14.25L53.37 14.25Q53.86 14.53 54.62 14.53L54.62 14.53Z"></path></g><!----><g data-v-423bf9ae="" id="92d84ab5-bb01-47b3-a532-6ce98b10c014" transform="matrix(1.0005360841751099,0,0,1.0005360841751099,-4.944583415985107,-5.00270414352417)" stroke="none" fill="white"><path d="M30.02 64.975c3.822 2.509-5.276 11.424-1.061 13.268 6.501 2.844 8.29-16.664 15.1-14.575 10.526 3.231-5.758 31.13 5.293 31.33 11.7.213-4.581-30.851 6.915-32.942 7.385-1.343 5.02 20.12 12.241 18.13 7.676-2.116-4.992-17.215.31-22.934 3.73-4.02 14.746 2.913 16.71-2.125 2.53-6.491-15.207-8.681-14.392-15.565 1.055-8.915 19.462-7.3 22.877-15.655 1.727-4.224 1.457-11.507-2.885-13.325-10.593-4.435-19.842 22.868-29.72 17.12-6.686-3.892 8.609-20.07 1.498-22.423-9.574-3.169-6.474 27.25-16.393 25.429-5.417-.995 1.962-15.04-3.43-16.16-4.553-.945-3.885 9.38-8.09 11.366-4.787 2.261-13.486-5.844-15.844-1.104-2.961 5.952 14.28 8.488 13.11 15.03-.938 5.24-14.181 2.326-14.02 7.647.126 4.166 10.617 1.205 11.317 5.313C31.405 63.656-.253 66.87 5.985 75.95c4.99 7.259 16.72-15.775 24.04-10.969"></path></g><!----></svg>