<svg data-v-fde0c5aa="" xmlns="http://www.w3.org/2000/svg" viewBox="0 0 300 300" class="iconLeft"><!----><defs data-v-fde0c5aa=""><!----></defs><rect data-v-fde0c5aa="" fill="#724223" x="0" y="0" width="300px" height="300px" class="logo-background-square"></rect><defs data-v-fde0c5aa=""><!----></defs><g data-v-fde0c5aa="" id="91f5a11f-3424-43b8-817e-492fe96a02fa" fill="#0D0E0E" transform="matrix(2.23408842086792,0,0,2.23408842086792,86.96984520466506,130.66396335849572)"><path d="M3.07 13.55L3.07 5.95L0.06 5.95L0.06 3.75L8.83 3.75L8.83 5.95L5.84 5.95L5.84 13.55L3.07 13.55ZM16.42 3.75L19.19 3.75L19.19 13.55L16.42 13.55L16.42 9.73L12.64 9.73L12.64 13.55L9.87 13.55L9.87 3.75L12.64 3.75L12.64 7.43L16.42 7.43L16.42 3.75ZM23.90 11.41L29.02 11.41L29.02 13.55L21.15 13.55L21.15 3.75L28.84 3.75L28.84 5.89L23.90 5.89L23.90 7.55L28.25 7.55L28.25 9.62L23.90 9.62L23.90 11.41ZM34.64 13.55L34.64 3.75L39.27 3.75L39.27 3.75Q40.88 3.75 42.13 4.35L42.13 4.35L42.13 4.35Q43.37 4.96 44.06 6.06L44.06 6.06L44.06 6.06Q44.74 7.17 44.74 8.65L44.74 8.65L44.74 8.65Q44.74 10.14 44.06 11.24L44.06 11.24L44.06 11.24Q43.37 12.35 42.13 12.95L42.13 12.95L42.13 12.95Q40.88 13.55 39.27 13.55L39.27 13.55L34.64 13.55ZM37.41 11.34L39.16 11.34L39.16 11.34Q40.42 11.34 41.18 10.63L41.18 10.63L41.18 10.63Q41.94 9.91 41.94 8.65L41.94 8.65L41.94 8.65Q41.94 7.39 41.18 6.68L41.18 6.68L41.18 6.68Q40.42 5.96 39.16 5.96L39.16 5.96L37.41 5.96L37.41 11.34ZM53.54 13.55L52.77 11.65L48.62 11.65L47.85 13.55L45.02 13.55L49.35 3.75L52.08 3.75L56.42 13.55L53.54 13.55ZM49.43 9.60L51.95 9.60L50.69 6.47L49.43 9.60ZM64.54 13.55L63.77 11.65L59.63 11.65L58.86 13.55L56.03 13.55L60.35 3.75L63.08 3.75L67.42 13.55L64.54 13.55ZM60.44 9.60L62.96 9.60L61.70 6.47L60.44 9.60ZM74.77 11.13L74.77 8.44L77.22 8.44L77.22 12.50L77.22 12.50Q76.38 13.10 75.29 13.43L75.29 13.43L75.29 13.43Q74.20 13.75 73.11 13.75L73.11 13.75L73.11 13.75Q71.57 13.75 70.34 13.10L70.34 13.10L70.34 13.10Q69.10 12.45 68.40 11.28L68.40 11.28L68.40 11.28Q67.70 10.12 67.70 8.65L67.70 8.65L67.70 8.65Q67.70 7.18 68.40 6.02L68.40 6.02L68.40 6.02Q69.10 4.86 70.35 4.21L70.35 4.21L70.35 4.21Q71.60 3.56 73.16 3.56L73.16 3.56L73.16 3.56Q74.54 3.56 75.63 4.02L75.63 4.02L75.63 4.02Q76.72 4.48 77.45 5.35L77.45 5.35L75.68 6.94L75.68 6.94Q74.69 5.85 73.30 5.85L73.30 5.85L73.30 5.85Q72.04 5.85 71.27 6.61L71.27 6.61L71.27 6.61Q70.50 7.38 70.50 8.65L70.50 8.65L70.50 8.65Q70.50 9.46 70.85 10.10L70.85 10.10L70.85 10.10Q71.20 10.74 71.83 11.09L71.83 11.09L71.83 11.09Q72.46 11.45 73.28 11.45L73.28 11.45L73.28 11.45Q74.07 11.45 74.77 11.13L74.77 11.13Z"></path></g><defs data-v-fde0c5aa=""><!----></defs><g data-v-fde0c5aa="" id="0d4e8d82-9d1f-4a0b-9413-e5120c1637ad" stroke="none" fill="#CECAC4" transform="matrix(0.3796261250972748,0,0,0.3796261250972748,38.037500095425905,131.00988625987554)"><path d="M30.02 64.975c3.822 2.509-5.276 11.424-1.061 13.268 6.501 2.844 8.29-16.664 15.1-14.575 10.526 3.231-5.758 31.13 5.293 31.33 11.7.213-4.581-30.851 6.915-32.942 7.385-1.343 5.02 20.12 12.241 18.13 7.676-2.116-4.992-17.215.31-22.934 3.73-4.02 14.746 2.913 16.71-2.125 2.53-6.491-15.207-8.681-14.392-15.565 1.055-8.915 19.462-7.3 22.877-15.655 1.727-4.224 1.457-11.507-2.885-13.325-10.593-4.435-19.842 22.868-29.72 17.12-6.686-3.892 8.609-20.07 1.498-22.423-9.574-3.169-6.474 27.25-16.393 25.429-5.417-.995 1.962-15.04-3.43-16.16-4.553-.945-3.885 9.38-8.09 11.366-4.787 2.261-13.486-5.844-15.844-1.104-2.961 5.952 14.28 8.488 13.11 15.03-.938 5.24-14.181 2.326-14.02 7.647.126 4.166 10.617 1.205 11.317 5.313C31.405 63.656-.253 66.87 5.985 75.95c4.99 7.259 16.72-15.775 24.04-10.969"></path></g><!----></svg>