<svg data-v-423bf9ae="" xmlns="http://www.w3.org/2000/svg" viewBox="0 0 455.6820137407709 60" class="font"><!----><!----><!----><g data-v-423bf9ae="" id="d673e534-afec-4b4a-861e-abba123c9795" fill="black" transform="matrix(5.888125419616699,0,0,5.888125419616699,-0.3532882630825043,-20.961729049682617)"><path d="M3.07 13.55L3.07 5.95L0.06 5.95L0.06 3.75L8.83 3.75L8.83 5.95L5.84 5.95L5.84 13.55L3.07 13.55ZM16.42 3.75L19.19 3.75L19.19 13.55L16.42 13.55L16.42 9.73L12.64 9.73L12.64 13.55L9.87 13.55L9.87 3.75L12.64 3.75L12.64 7.43L16.42 7.43L16.42 3.75ZM23.90 11.41L29.02 11.41L29.02 13.55L21.15 13.55L21.15 3.75L28.84 3.75L28.84 5.89L23.90 5.89L23.90 7.55L28.25 7.55L28.25 9.62L23.90 9.62L23.90 11.41ZM34.64 13.55L34.64 3.75L39.27 3.75L39.27 3.75Q40.88 3.75 42.13 4.35L42.13 4.35L42.13 4.35Q43.37 4.96 44.06 6.06L44.06 6.06L44.06 6.06Q44.74 7.17 44.74 8.65L44.74 8.65L44.74 8.65Q44.74 10.14 44.06 11.24L44.06 11.24L44.06 11.24Q43.37 12.35 42.13 12.95L42.13 12.95L42.13 12.95Q40.88 13.55 39.27 13.55L39.27 13.55L34.64 13.55ZM37.41 11.34L39.16 11.34L39.16 11.34Q40.42 11.34 41.18 10.63L41.18 10.63L41.18 10.63Q41.94 9.91 41.94 8.65L41.94 8.65L41.94 8.65Q41.94 7.39 41.18 6.68L41.18 6.68L41.18 6.68Q40.42 5.96 39.16 5.96L39.16 5.96L37.41 5.96L37.41 11.34ZM53.54 13.55L52.77 11.65L48.62 11.65L47.85 13.55L45.02 13.55L49.35 3.75L52.08 3.75L56.42 13.55L53.54 13.55ZM49.43 9.60L51.95 9.60L50.69 6.47L49.43 9.60ZM64.54 13.55L63.77 11.65L59.63 11.65L58.86 13.55L56.03 13.55L60.35 3.75L63.08 3.75L67.42 13.55L64.54 13.55ZM60.44 9.60L62.96 9.60L61.70 6.47L60.44 9.60ZM74.77 11.13L74.77 8.44L77.22 8.44L77.22 12.50L77.22 12.50Q76.38 13.10 75.29 13.43L75.29 13.43L75.29 13.43Q74.20 13.75 73.11 13.75L73.11 13.75L73.11 13.75Q71.57 13.75 70.34 13.10L70.34 13.10L70.34 13.10Q69.10 12.45 68.40 11.28L68.40 11.28L68.40 11.28Q67.70 10.12 67.70 8.65L67.70 8.65L67.70 8.65Q67.70 7.18 68.40 6.02L68.40 6.02L68.40 6.02Q69.10 4.86 70.35 4.21L70.35 4.21L70.35 4.21Q71.60 3.56 73.16 3.56L73.16 3.56L73.16 3.56Q74.54 3.56 75.63 4.02L75.63 4.02L75.63 4.02Q76.72 4.48 77.45 5.35L77.45 5.35L75.68 6.94L75.68 6.94Q74.69 5.85 73.30 5.85L73.30 5.85L73.30 5.85Q72.04 5.85 71.27 6.61L71.27 6.61L71.27 6.61Q70.50 7.38 70.50 8.65L70.50 8.65L70.50 8.65Q70.50 9.46 70.85 10.10L70.85 10.10L70.85 10.10Q71.20 10.74 71.83 11.09L71.83 11.09L71.83 11.09Q72.46 11.45 73.28 11.45L73.28 11.45L73.28 11.45Q74.07 11.45 74.77 11.13L74.77 11.13Z"></path></g><!----><!----></svg>